<svg xmlns="http://www.w3.org/2000/svg" viewBox="0 0 413.91 434.47"><defs><style>.cls-1,.cls-4{fill:none;stroke-miterlimit:10;}.cls-1{stroke:#33b4ff;stroke-width:13px;}.cls-2{fill:#33c9ff;}.cls-3{fill:#fff;}.cls-4{stroke:#fff;stroke-width:5px;}</style></defs><title>logoClubInfo</title><g id="anneauDerriere"><ellipse class="cls-1" cx="254.11" cy="253.23" rx="219.56" ry="63.3" transform="translate(-131.18 100.7) rotate(-25.76)"/><ellipse class="cls-1" cx="202.76" cy="217.01" rx="65.73" ry="210.51"/><ellipse class="cls-1" cx="252.88" cy="251.68" rx="62.92" ry="219.15" transform="translate(-129.05 337.98) rotate(-64.72)"/></g><g id="droite"><polygon class="cls-2" points="206.44 228.14 332.24 162.31 333.2 289.05 208.34 354.02 206.44 228.14"/><ellipse class="cls-3" cx="317.2" cy="261.48" rx="6.43" ry="5.97"/><ellipse class="cls-3" cx="246.34" cy="159.85" rx="6.43" ry="5.48"/></g><g id="gauche"><polygon class="cls-2" points="74.75 165.3 201.63 228.14 204.53 354.89 75.9 291.57 74.75 165.3"/></g><g id="haut"><polygon class="cls-2" points="203.91 223.66 332.24 156.77 202.22 93.02 75.9 159.3 203.91 223.66"/></g><g id="motifs"><polygon class="cls-3" points="179.28 211.73 265.62 168.26 263.37 164.24 175.14 209.4 179.28 211.73"/><polygon class="cls-3" points="189.66 157.85 129.55 187.99 134.37 190.53 192.66 161.07 189.66 157.85"/><polygon class="cls-3" points="110.37 177.94 173.16 147.99 171.44 144.59 106.56 175.49 110.37 177.94"/><polygon class="cls-3" points="88.28 166.93 130.14 147 127.65 143.55 82.97 164.6 88.28 166.93"/><polygon class="cls-3" points="169.84 108.91 197 122.17 195.79 126.11 165.1 111.48 169.84 108.91"/><polygon class="cls-3" points="286.27 134.23 239.27 156.97 237.26 153.99 283.22 131.74 286.27 134.23"/><polygon class="cls-3" points="316.65 169.66 319.14 257.25 315.44 257.25 312.39 172.32 316.65 169.66"/><polygon class="cls-3" points="294.87 181.07 296.4 225.27 292.22 225.27 291.1 183.24 294.87 181.07"/><polygon class="cls-3" points="272.53 192.28 274.5 246.24 270.24 246.69 268.64 194.82 272.53 192.28"/><polygon class="cls-3" points="236.62 210.93 238.91 303.5 234.16 303.66 232.6 213.22 236.62 210.93"/><polygon class="cls-3" points="177.71 216.11 177.75 283.37 173.49 283.37 173.25 213.46 177.71 216.11"/><polygon class="cls-3" points="126.97 191 127.93 257.86 133.28 257.62 132.07 189.95 126.97 191"/><polygon class="cls-3" points="109.05 182.36 110.98 284.05 105.99 284.05 104.99 179.55 109.05 182.36"/><polygon class="cls-3" points="86.53 170.79 86.96 200.01 82.68 200.25 82.68 168.24 86.53 170.79"/><ellipse class="cls-3" cx="268.64" cy="164.3" rx="6.43" ry="5.48"/><ellipse class="cls-3" cx="234.62" cy="157.12" rx="6.43" ry="5.48"/><ellipse class="cls-3" cx="194.62" cy="158.12" rx="6.43" ry="5.48"/><ellipse class="cls-3" cx="199.62" cy="126.12" rx="6.43" ry="5.48"/><ellipse class="cls-3" cx="175.91" cy="145.03" rx="6.43" ry="5.48"/><ellipse class="cls-3" cx="133.91" cy="143.03" rx="6.43" ry="5.48"/><ellipse class="cls-3" cx="272.35" cy="250.27" rx="6.43" ry="6.15"/><ellipse class="cls-3" cx="294.91" cy="229.88" rx="6.43" ry="5.76"/><ellipse class="cls-3" cx="236.39" cy="308.81" rx="6.43" ry="5.89"/><ellipse class="cls-3" cx="175.2" cy="288.64" rx="6.43" ry="5.81"/><ellipse class="cls-3" cx="130.62" cy="262.75" rx="6.43" ry="5.78"/><ellipse class="cls-3" cx="108.41" cy="288.71" rx="6.43" ry="5.75"/><ellipse class="cls-3" cx="84.62" cy="205.36" rx="6.43" ry="5.85"/><line class="cls-4" x1="206.44" y1="357.3" x2="203.62" y2="227.76"/><line class="cls-4" x1="333.2" y1="158.34" x2="202.74" y2="227.32"/><line class="cls-4" x1="72.77" y1="161.27" x2="203.62" y2="226.39"/></g><g id="anneauDevant"><path class="cls-1" d="M211.4,425.07C222.06,448.89,235,462.86,249,462.86c36.3,0,65.72-94.24,65.72-210.5S285.29,41.85,249,41.85a23.09,23.09,0,0,0-11.23,3.06" transform="translate(-46.38 -34.9)"/><path class="cls-1" d="M53.88,334.23c-1.19,5.54-.82,10.53,1.25,14.84,15.2,31.48,116.05,14.29,225.26-38.41s185.43-121,170.23-152.44a19.47,19.47,0,0,0-4.44-5.91" transform="translate(-46.38 -34.9)"/><path class="cls-1" d="M60.35,151a19.8,19.8,0,0,0-5.06,6.53C40.45,189,117.15,256.35,226.59,308s210.19,68.1,225,36.68a17.79,17.79,0,0,0,.74-1.82" transform="translate(-46.38 -34.9)"/></g></svg>